<svg viewBox="0 0 1024 1024" xmlns="http://www.w3.org/2000/svg">
  <path d="M512 426.666667c-46.933333 0-85.333333 38.4-85.333333 85.333333s38.4 85.333333 85.333333 85.333333 85.333333-38.4 85.333333-85.333333-38.4-85.333333-85.333333-85.333333z m298.666667-298.666667H213.333333a85.333333 85.333333 0 0 0-85.333333 85.333333v597.333334a85.333333 85.333333 0 0 0 85.333333 85.333333h597.333334a85.333333 85.333333 0 0 0 85.333333-85.333333V213.333333a85.333333 85.333333 0 0 0-85.333333-85.333333z m-74.666667 384c0 9.813333-0.853333 19.626667-2.133333 29.013333l63.146666 49.493334c5.546667 4.693333 7.253333 12.8 3.413334 19.2l-59.733334 103.253333c-3.84 6.4-11.52 8.96-18.346666 6.4l-74.24-29.866667c-15.36 11.946667-32.426667 21.76-50.346667 29.44l-11.093333 78.933334c-1.28 7.253333-7.68 12.8-14.933334 12.8h-119.466666c-7.253333 0-13.653333-5.546667-14.933334-12.373334l-11.093333-78.933333c-18.346667-7.68-34.986667-17.493333-50.346667-29.44l-74.24 29.866667c-6.826667 2.56-14.506667 0-18.346666-6.4l-59.733334-103.253334a15.061333 15.061333 0 0 1 3.413334-19.2l63.146666-49.493333c-1.28-9.813333-2.133333-19.626667-2.133333-29.44 0-9.813333 0.853333-19.626667 2.133333-29.013333l-63.146666-49.493334a15.061333 15.061333 0 0 1-3.413334-19.2l59.733334-103.253333c3.84-6.4 11.52-8.96 18.346666-6.4l74.24 29.866667c15.36-11.946667 32.426667-21.76 50.346667-29.44l11.093333-78.933334c1.28-7.253333 7.68-12.8 14.933334-12.8h119.466666c7.253333 0 13.653333 5.546667 14.933334 12.373334l11.093333 78.933333c18.346667 7.68 34.986667 17.493333 50.346667 29.44l74.24-29.866667c6.826667-2.56 14.506667 0 18.346666 6.4l59.733334 103.253334c3.84 6.4 2.133333 14.506667-3.413334 19.2l-63.146666 49.493333c1.28 9.813333 2.133333 19.626667 2.133333 29.44z" fill="currentColor"></path>
</svg>
