<svg t="1775320368345" viewBox="0 0 1024 1024" version="1.1" xmlns="http://www.w3.org/2000/svg" p-id="6572" width="200" height="200"><path d="M293.568 486.784C288 528 288 578.688 288 633.92v95.36c0 12.672 0 18.944-4.096 22.784-4.096 3.776-10.24 3.328-22.528 2.432a504.768 504.768 0 0 1-30.336-3.072c-40.96-5.504-74.944-16.576-103.616-40.128a202.816 202.816 0 0 1-28.096-28.032c-24.832-30.272-35.712-66.496-40.96-110.464C53.312 529.92 53.312 475.776 53.312 407.424v-4.16c0-68.352 0-122.56 5.12-165.376 5.12-44.032 16.064-80.192 40.96-110.464 8.32-10.24 17.792-19.648 28.032-28.096 30.272-24.832 66.496-35.712 110.464-40.96C280.768 53.312 334.912 53.312 403.2 53.312h4.16c68.352 0 122.496 0 165.376 5.12 43.968 5.12 80.192 16.064 110.464 40.96 10.24 8.32 19.648 17.792 28.032 28.032 23.552 28.672 34.56 62.72 40.128 103.68 1.28 9.472 2.304 19.584 3.072 30.272 0.896 12.288 1.344 18.432-2.432 22.528-3.84 4.096-10.112 4.096-22.784 4.096h-95.36c-55.232 0-105.856 0-147.2 5.568-45.44 6.08-93.568 20.48-133.12 60.032-39.552 39.552-53.952 87.68-60.032 133.12z" fill="#ffffff" p-id="6573"></path><path d="M500.096 434.112a41.216 41.216 0 1 0-10.752-81.728c-34.56 4.48-65.408 13.696-91.136 34.88-26.24 21.504-39.04 48.96-45.44 80.32a41.216 41.216 0 1 0 80.896 16.256c3.648-18.112 9.152-26.496 16.96-32.896 8.832-7.296 22.336-13.248 49.472-16.832zM833.28 352.384a41.216 41.216 0 1 0-10.688 81.728c27.136 3.584 40.64 9.6 49.472 16.832 7.808 6.4 13.312 14.784 16.896 32.896a41.216 41.216 0 0 0 80.896-16.256c-6.272-31.36-19.2-58.816-45.44-80.32-25.664-21.12-56.576-30.4-91.136-34.88zM599.488 352a41.216 41.216 0 1 0 0 82.496H723.2a41.216 41.216 0 0 0 0-82.496H599.488zM434.496 599.488a41.216 41.216 0 0 0-82.496 0V723.2a41.216 41.216 0 0 0 82.496 0V599.488zM970.688 599.488a41.216 41.216 0 0 0-82.56 0V723.2a41.216 41.216 0 1 0 82.56 0V599.488zM433.664 838.784a41.28 41.28 0 0 0-80.832 16.256c6.272 31.36 19.2 58.88 45.44 80.384 25.6 21.12 56.512 30.336 91.072 34.88a41.216 41.216 0 1 0 10.752-81.792c-27.136-3.52-40.64-9.472-49.472-16.768-7.808-6.4-13.312-14.784-16.96-32.96zM969.856 855.04a41.216 41.216 0 1 0-80.896-16.256c-3.584 18.176-9.088 26.56-16.896 32.96-8.832 7.296-22.4 13.248-49.472 16.768a41.216 41.216 0 0 0 10.688 81.792c34.56-4.48 65.472-13.696 91.2-34.88 26.176-21.568 39.04-48.96 45.376-80.384zM599.488 888.192a41.216 41.216 0 0 0 0 82.496H723.2a41.216 41.216 0 0 0 0-82.56H599.488z" fill="#ffffff" p-id="6574"></path></svg>
